<svg width="42" height="37" viewBox="0 0 42 37" fill="none" xmlns="http://www.w3.org/2000/svg">
<path d="M20.6849 5.65826C21.7778 4.25804 22.9884 3.08909 24.4755 2.21838C28.783 -0.29898 34.8695 0.733488 38.0637 4.53733C41.94 9.15501 42.1716 15.5508 38.6728 20.7055C36.8159 23.4428 34.4714 25.7352 31.99 27.8949C28.8726 30.6094 25.7104 33.2721 22.5648 35.955C21.2557 37.0709 20.1334 37.1101 18.8651 36.022C15.1757 32.8627 11.4708 29.7286 7.83769 26.5111C5.51498 24.455 3.38167 22.2005 1.92278 19.4342C-0.533023 14.7824 -0.511261 10.1319 2.41036 5.68354C6.09983 0.0649739 14.5 -1.08503 19.5076 4.31365C19.8915 4.73321 20.2549 5.1692 20.6849 5.65826ZM20.6504 34.4082C20.8193 34.2818 20.9562 34.1833 21.0829 34.0759C24.3539 31.2817 27.6492 28.5154 30.8831 25.6809C33.0356 23.7941 35.0819 21.7936 36.67 19.3938C38.9326 15.9716 39.4163 12.351 37.8218 8.5421C35.8868 3.93579 30.3533 1.84431 26.038 4.07481C24.3091 4.967 23.0678 6.3609 22.0248 7.96079C21.303 9.06782 20.0834 9.04128 19.3105 7.96837C18.7986 7.24931 18.2867 6.51634 17.6776 5.87183C14.4053 2.38772 9.01761 2.28156 5.57513 5.60519C2.56265 8.51178 1.72443 13.4871 3.5634 17.4123C4.69212 19.8197 6.35193 21.848 8.2984 23.6248C11.3147 26.3822 14.4245 29.0399 17.5022 31.7304C18.5273 32.6339 19.5869 33.5084 20.6504 34.4082Z" fill="white"/>
</svg>
