<svg width="80" height="80" viewBox="0 0 80 80" fill="none" xmlns="http://www.w3.org/2000/svg"><rect width="79.099" height="79.1017" rx="15" fill="#272727"></rect><g clip-path="url(#clip0_1215_437)"><path d="M39.6428 17.2563C47.3588 17.3215 53.9646 23.1634 54.9233 30.7466C55.4483 34.8883 54.2607 38.6524 52.5498 42.312C50.2744 47.1776 47.1144 51.4959 44.0232 55.8554C42.9147 57.4167 41.8321 58.9968 40.7116 60.5495C40.0421 61.4777 39.0937 61.5017 38.4535 60.5667C35.1557 55.7628 31.7994 50.9915 28.6428 46.1001C26.5426 42.8893 25.0774 39.308 24.3261 35.5488C22.6566 27.0614 28.9199 18.4453 37.5154 17.4674C38.2177 17.3867 38.9302 17.3267 39.6428 17.2563ZM39.5602 57.6517C40.7099 56.0424 41.7788 54.5635 42.8304 53.0795C45.7306 48.9722 48.6445 44.87 50.6617 40.2291C52.0214 37.0963 52.9113 33.8812 52.2779 30.4172C51.2349 24.7092 46.3072 20.3154 40.4965 19.9002C34.6858 19.485 29.2194 23.1239 27.3399 28.6501C26.0886 32.3268 26.703 35.8662 28.1092 39.3284C30.839 46.0435 35.4001 51.6263 39.5602 57.6517Z" fill="white"></path><path d="M31.8301 32.7437C31.8301 31.2173 32.284 29.7252 33.1344 28.4558C33.9849 27.1865 35.1937 26.1969 36.6082 25.6122C38.0227 25.0274 39.5792 24.8738 41.0813 25.1705C42.5834 25.4673 43.9635 26.2013 45.0472 27.2796C46.1309 28.358 46.8697 29.7324 47.1701 31.2291C47.4705 32.7258 47.3191 34.2777 46.735 35.6887C46.1509 37.0997 45.1603 38.3064 43.8884 39.1564C42.6165 40.0064 41.1204 40.4615 39.5891 40.4642C38.5708 40.466 37.5622 40.2676 36.6209 39.8804C35.6796 39.4933 34.8242 38.9249 34.1035 38.2078C33.3828 37.4907 32.8111 36.639 32.421 35.7014C32.0309 34.7638 31.8301 33.7587 31.8301 32.7437ZM34.4118 32.6939C34.3972 34.059 34.9272 35.3739 35.8852 36.3495C36.8433 37.325 38.1508 37.8813 39.5203 37.8958C40.8897 37.9104 42.2089 37.3821 43.1876 36.4271C44.1662 35.4722 44.7242 34.1688 44.7389 32.8037C44.7595 29.99 42.4686 27.6379 39.6717 27.6018C38.297 27.5835 36.971 28.1092 35.9844 29.0637C34.9978 30.0182 34.431 31.3236 34.4084 32.6939H34.4118Z" fill="white"></path></g><defs><clipPath id="clip0_1215_437"><rect width="31" height="44" fill="white" transform="translate(24.0488 17.2563)"></rect></clipPath></defs></svg>