<svg width="80" height="80" viewBox="0 0 80 80" fill="none" xmlns="http://www.w3.org/2000/svg"><rect x="0.0996094" width="79.099" height="79.1017" rx="15" fill="#272727"></rect><g clip-path="url(#clip0_1215_438)"><path d="M46.2258 57.1424C44.0847 55.0235 41.9245 53.0179 39.9581 50.8388C39.4953 50.3232 39.6839 49.244 39.5599 48.3349H42.2266V45.6144H37.0905V52.4336H39.5966C39.7398 53.7569 39.7852 54.8551 38.6204 55.8707C36.6994 57.5326 34.9809 59.4109 33.1088 61.2635L29.5795 57.78C28.984 57.1923 28.4513 56.5169 27.7755 56.0357C26.5024 55.13 26.3452 53.9356 26.6211 52.4869H29.0975C29.1272 52.1707 29.1673 51.9266 29.1673 51.6826C29.1673 48.4174 29.1883 45.1521 29.1481 41.8869C29.1083 41.4491 28.9327 41.034 28.6451 40.6977C25.1524 36.3566 24.164 31.5533 26.2002 26.3718C28.2243 21.2437 32.1379 18.1675 37.693 17.4044C45.5359 16.3269 52.5999 21.4482 53.9342 29.1198C54.6781 33.4162 53.5046 37.2674 50.7296 40.6684C50.4073 41.0815 50.2209 41.5815 50.1952 42.1017C50.1358 44.1296 50.1707 46.1592 50.1707 48.3005H52.7169C52.916 49.6754 52.8741 50.7718 51.7285 51.772C49.8145 53.4355 48.0856 55.3036 46.2258 57.1424ZM39.6699 19.8018C33.1787 19.8018 27.8314 25.0331 27.8052 31.4123C27.779 37.7916 33.149 43.1277 39.6612 43.1311C46.1733 43.1346 51.5469 37.8294 51.5364 31.4209C51.5085 25.0434 46.1611 19.8035 39.6699 19.8018ZM34.4204 54.9874V54.0009C34.4204 51.143 34.4204 48.2833 34.4081 45.4254C34.4081 45.1504 34.3121 44.738 34.12 44.6297C33.411 44.2121 32.6426 43.8942 31.7868 43.4869V54.9668L30.8124 55.063L33.0408 57.359L35.4857 55.0664L34.4204 54.9874ZM47.5373 50.8629V43.5419C44.9177 44.5369 44.9177 44.5369 44.9177 47.0683V50.8491L43.8035 50.9454L46.1995 53.2121L48.6828 50.9299L47.5373 50.8629Z" fill="white"></path><path d="M35.2231 33.9092C35.974 33.9092 36.6935 33.8851 37.4113 33.9281C37.5859 33.9367 37.7885 34.136 37.888 34.301C38.4277 35.1998 40.4692 35.504 41.1625 34.7255C41.393 34.466 41.5711 33.9435 41.4593 33.6634C41.3677 33.4662 41.2373 33.2888 41.0758 33.1414C40.9143 32.9939 40.7247 32.8793 40.518 32.8041C40.0116 32.6477 39.4266 32.7388 38.8747 32.7216C38.0552 32.7108 37.2618 32.436 36.6159 31.9395C35.97 31.4429 35.5072 30.7519 35.2982 29.972C34.8616 28.3067 35.5113 26.5452 37.062 25.801C37.9858 25.3577 38.6757 24.9727 38.3194 23.7783H40.8324C40.8691 23.8247 40.9354 23.8711 40.9319 23.9124C40.8534 24.8215 41.1415 25.3439 42.1195 25.7186C43.431 26.2187 44.03 27.3976 44.1487 28.9271C43.3559 28.9271 42.5892 28.9374 41.8243 28.9168C41.6899 28.8863 41.5724 28.8064 41.496 28.6934C40.89 27.9114 39.2572 27.4698 38.4504 28.0059C38.1151 28.2294 37.7763 28.8446 37.8618 29.1763C37.9596 29.5595 38.4801 29.9977 38.8974 30.1043C39.6135 30.2882 40.4063 30.1644 41.1432 30.2933C42.7691 30.5786 43.913 31.8555 44.1609 33.5448C44.3688 34.9678 43.4816 36.6966 42.0409 37.2603C41.1957 37.5903 40.8184 37.9856 40.9651 38.8569C40.9606 38.975 40.9346 39.0915 40.8883 39.2006H38.3333C38.6826 37.9649 37.9334 37.5473 36.9852 37.0679C35.8116 36.4595 35.2353 35.3545 35.2231 33.9092Z" fill="white"></path></g><defs><clipPath id="clip0_1215_438"><rect width="29" height="44" fill="white" transform="translate(25.1484 17.2563)"></rect></clipPath></defs></svg>