<svg width="41" height="35" viewBox="0 0 41 35" fill="none" xmlns="http://www.w3.org/2000/svg">
<g clip-path="url(#clip0_1056_2696)">
<path d="M20.6797 34.8078C15.974 34.8078 11.2682 34.8193 6.55998 34.8078C3.73479 34.7975 1.58438 33.1318 0.840906 30.39C0.712361 29.8953 0.648073 29.3854 0.649724 28.8733C0.638894 21.5104 0.638894 14.1475 0.649724 6.78458C0.649724 3.50208 3.11505 0.861706 6.3001 0.850148C15.8574 0.815901 25.4146 0.815901 34.9718 0.850148C38.1632 0.861706 40.6322 3.49438 40.6372 6.77173C40.6472 14.1347 40.6472 21.4976 40.6372 28.8605C40.6372 32.17 38.1594 34.768 34.9243 34.8001C30.1761 34.8399 25.4279 34.8103 20.6797 34.8103V34.8078ZM38.2981 11.9022C38.2981 10.0915 38.3043 8.36161 38.2981 6.63689C38.2967 6.33867 38.2547 6.04211 38.1731 5.75591C37.6983 4.12237 36.3726 3.1746 34.5733 3.1746C25.3675 3.1746 16.1627 3.1746 6.95861 3.1746C4.33459 3.1746 2.96011 4.58726 2.96011 7.29185C2.95511 14.3123 2.95511 21.3353 2.96011 28.3609C2.94783 28.873 3.00287 29.3845 3.12377 29.8815C3.56361 31.4752 4.90063 32.4602 6.59 32.4653C9.79755 32.4756 13.0038 32.4653 16.2114 32.4653C22.3129 32.4653 28.4156 32.4473 34.517 32.4756C36.505 32.4846 38.2806 31.1464 38.3106 28.9286C38.3331 27.2591 38.3168 25.5896 38.3106 23.9201C38.3106 23.8661 38.2581 23.8122 38.2144 23.7287C35.4104 23.7287 32.6002 23.7416 29.79 23.7287C25.6316 23.7069 22.8564 19.1967 24.6532 15.3388C25.6866 13.1184 27.4484 11.9395 29.8613 11.9125C32.649 11.8791 35.4379 11.9022 38.2993 11.9022H38.2981ZM38.2881 14.2472C36.3738 14.2472 34.522 14.2382 32.6652 14.2472C31.5406 14.2549 30.4161 14.2164 29.2915 14.3423C27.4409 14.5503 26.1002 16.5447 26.4713 18.3979C26.8461 20.2831 28.1557 21.3644 30.1299 21.3773C32.6702 21.3927 35.2118 21.3773 37.7521 21.3773C37.9132 21.3773 38.0744 21.3542 38.2769 21.3375L38.2881 14.2472Z" fill="white"/>
</g>
<defs>
<clipPath id="clip0_1056_2696">
<rect width="40" height="34" fill="white" transform="translate(0.642578 0.81543)"/>
</clipPath>
</defs>
</svg>
