<svg width="51" height="41" viewBox="0 0 51 41" fill="none" xmlns="http://www.w3.org/2000/svg">
<g clip-path="url(#clip0_1056_2690)">
<path d="M29.2615 18.7043C28.5752 17.5262 27.9997 16.5827 27.4675 15.613C26.5062 13.8951 26.0843 11.9305 26.2559 9.97205C26.4276 8.01364 27.1851 6.15121 28.4308 4.62465C31.2049 1.29391 34.8412 0.0990478 38.9952 1.22925C43.1059 2.34987 45.5309 5.19214 46.2533 9.42561C46.6338 11.6525 46.169 13.7141 45.1167 15.6513C44.348 17.0503 43.5072 18.409 42.5978 19.7219C42.1161 20.4091 42.1619 20.9551 42.4798 21.683C44.977 27.4154 47.4309 33.1622 49.8968 38.909C50.5904 40.5205 50.4049 40.8246 48.6759 40.8246H1.85223C0.180983 40.8246 -0.0212939 40.5205 0.624085 39.0144C3.34046 32.6857 6.08088 26.3666 8.7539 20.0188C9.18255 19.0012 9.75569 18.6851 10.8321 18.6923C16.4503 18.7402 22.0685 18.7162 27.689 18.7162L29.2615 18.7043ZM41.0614 22.2529C39.6791 24.4415 38.4124 26.46 37.1313 28.4786C36.3342 29.7309 35.9032 29.7213 35.1229 28.4283C33.6588 26.0027 32.1922 23.5818 30.769 21.1347C30.6368 20.8536 30.42 20.6204 30.1487 20.4673C29.8773 20.3141 29.5648 20.2486 29.2543 20.2798C24.9197 20.3182 20.585 20.299 16.2504 20.299H13.9916L13.7749 20.6007C14.1963 21.058 14.5503 21.6184 15.056 21.9512C15.7495 22.4085 16.5635 22.6695 17.31 23.0575C19.458 24.1398 19.9108 25.7608 18.6369 27.7674C18.3599 28.2056 18.03 28.6103 17.7675 29.0581C17.1125 30.1715 17.3076 30.8994 18.4539 31.5004C18.9042 31.7556 19.3916 31.9397 19.8987 32.0464C22.4586 32.4774 25.016 32.973 27.6047 33.2293C31.7925 33.6435 35.3806 34.8551 36.9338 39.2011H48.3315C45.9258 33.5812 43.5586 28.0691 41.059 22.2481L41.0614 22.2529ZM12.2072 20.3972C10.8755 20.0332 10.2325 20.4355 9.71478 21.6998C7.54746 27.0012 5.21878 32.2355 2.95514 37.5034C2.71432 38.035 2.52891 38.5833 2.30495 39.158H35.1976C34.2054 36.821 32.3897 35.6644 30.1574 35.2047C28.2453 34.8096 26.2538 34.7905 24.3369 34.4169C22.0781 33.9787 19.7759 33.5477 17.6471 32.7192C15.6869 31.9578 15.3353 30.1882 16.3708 28.3469C16.6261 27.8967 16.9488 27.4873 17.2354 27.0539C18.1408 25.677 17.9795 25.1191 16.4575 24.372C16.1348 24.214 15.8121 24.056 15.4798 23.9195C13.8134 23.237 12.4697 22.2697 12.2048 20.3972H12.2072ZM36.221 27.0371C38.7905 22.897 41.3359 18.8479 43.8283 14.7653C44.8494 13.0892 45.0613 11.1951 44.6832 9.32742C43.9776 5.8578 41.8464 3.52318 38.386 2.65877C34.8195 1.77041 31.7612 2.88145 29.5457 5.78358C27.3302 8.6857 27.1641 11.8512 28.9365 14.988C31.1327 18.8767 33.495 22.6719 35.7924 26.5031C35.9239 26.6899 36.0671 26.8682 36.221 27.0371Z" fill="white" stroke="white" stroke-width="0.5"/>
<path d="M36.2811 6.16701C36.8438 6.14985 37.4043 6.24464 37.9296 6.44584C38.455 6.64703 38.9346 6.95055 39.3404 7.3386C39.7461 7.72664 40.0698 8.19139 40.2924 8.70554C40.515 9.21968 40.6321 9.77287 40.6368 10.3326C40.6414 10.8924 40.5336 11.4474 40.3195 11.9652C40.1055 12.4829 39.7895 12.9529 39.3903 13.3476C38.9911 13.7422 38.5165 14.0536 37.9946 14.2634C37.4727 14.4732 36.9139 14.5772 36.3509 14.5693C35.7882 14.5864 35.2278 14.4916 34.7024 14.2905C34.1771 14.0893 33.6974 13.7857 33.2917 13.3977C32.8859 13.0096 32.5622 12.5449 32.3396 12.0308C32.117 11.5166 31.9999 10.9634 31.9953 10.4036C31.9906 9.84389 32.0985 9.28885 32.3125 8.77111C32.5266 8.25338 32.8425 7.78339 33.2417 7.38873C33.641 6.99407 34.1155 6.68269 34.6374 6.47289C35.1593 6.26309 35.7182 6.1591 36.2811 6.16701ZM38.9927 10.41C38.998 9.70907 38.7315 9.03301 38.2484 8.5224C37.7654 8.01179 37.1031 7.70591 36.3991 7.66835C35.8623 7.64658 35.3312 7.78426 34.8735 8.06384C34.4157 8.34342 34.0521 8.75223 33.8289 9.23813C33.6057 9.72403 33.5332 10.265 33.6205 10.7921C33.7078 11.3191 33.951 11.8084 34.319 12.1975C34.6871 12.5866 35.1634 12.8579 35.6871 12.9767C36.2109 13.0956 36.7583 13.0567 37.2597 12.8649C37.7611 12.6731 38.1937 12.3372 38.5024 11.9C38.811 11.4628 38.9817 10.9441 38.9927 10.41Z" fill="white" stroke="white" stroke-width="0.5"/>
</g>
<defs>
<clipPath id="clip0_1056_2690">
<rect width="50" height="40" fill="white" transform="translate(0.285156 0.81543)"/>
</clipPath>
</defs>
</svg>
