<svg width="80" height="80" viewBox="0 0 80 80" fill="none" xmlns="http://www.w3.org/2000/svg"><rect x="0.801758" width="79.099" height="79.1017" rx="15" fill="#272727"></rect><g clip-path="url(#clip0_1215_435)"><path d="M40.3091 17.5508C41.0576 17.8614 41.7532 18.044 42.3325 18.4041C43.5288 19.1618 44.6602 20.0356 45.8462 20.819C46.1737 21.0287 46.5498 21.151 46.9382 21.1739C48.3874 21.249 49.8435 21.261 51.291 21.3053C52.8513 21.3514 53.9006 22.0989 54.4407 23.5871C54.9124 24.8926 55.314 26.2238 55.8079 27.5123C55.9842 27.949 56.2667 28.3349 56.6299 28.6353C57.6894 29.4886 58.8054 30.2838 59.8906 31.1116C61.1912 32.1048 61.6252 33.3865 61.1672 34.9497C60.7759 36.2809 60.3127 37.595 59.9539 38.933C59.8428 39.3634 59.8428 39.8149 59.9539 40.2454C60.3076 41.5578 60.7468 42.8463 61.1365 44.1501C61.6184 45.7663 61.2014 47.0343 59.8718 48.0634C59.7654 48.1593 59.6511 48.2461 59.53 48.3228C56.782 49.7905 55.2883 52.1132 54.5517 55.11C54.039 57.2211 52.9795 57.9805 50.8313 57.8406C47.7278 57.6392 45.0874 58.4123 42.7085 60.4773C41.0696 61.8989 39.6699 61.8921 38.0122 60.4637C35.6538 58.4311 33.0561 57.6409 29.9697 57.8406C27.748 57.9857 26.7107 57.2433 26.1792 55.0912C25.4392 52.0944 23.8755 49.8843 21.2129 48.2767C19.3433 47.1469 18.9023 45.8106 19.7414 43.8224C20.9582 40.9348 20.9377 38.206 19.7414 35.3235C18.928 33.3626 19.3535 32.0144 21.1667 30.9272C23.8909 29.2957 25.4717 27.0225 26.2151 23.9728C26.7004 21.9812 27.7942 21.1808 29.8245 21.3241C32.9912 21.5477 35.7307 20.8121 38.0994 18.6328C38.677 18.1225 39.5383 17.9211 40.3091 17.5508ZM58.6482 33.8183C58.5222 33.6258 58.3773 33.4463 58.2158 33.2824C57.874 32.9888 57.4895 32.738 57.1289 32.4598C53.0393 29.3128 54.1006 30.801 52.3437 25.8961C51.5371 23.6332 52.0669 23.9455 49.8093 24.0547C46.7519 24.2032 44.1799 23.384 41.8215 21.4129C40.1723 20.0356 40.5808 20.0476 38.9162 21.4231C36.5784 23.3652 34.0474 24.2493 31.0088 24.0445C29.0383 23.9113 29.0486 24.0684 28.3975 25.9098C26.6645 30.8095 27.7241 29.3077 23.6123 32.47C21.6982 33.9463 21.9648 33.3097 22.6262 35.5419C24.0669 40.4194 24.0583 38.7674 22.6262 43.6467C21.9665 45.8857 21.7153 45.2423 23.6294 46.7186C27.719 49.8707 26.6577 48.3791 28.4145 53.2822C29.2212 55.5418 28.6863 55.2363 30.949 55.1271C34.0063 54.9786 36.5766 55.7944 38.9368 57.7655C40.574 59.1308 40.1672 59.1479 41.842 57.7655C44.1782 55.8268 46.7075 54.9803 49.7461 55.1322C52.0925 55.25 51.5388 55.5657 52.3557 53.2771C54.1074 48.3689 53.0393 49.8809 57.0708 46.7681C59.0566 45.2321 58.7952 45.9148 58.0962 43.5579C56.6914 38.7794 56.6726 40.3921 58.1099 35.6187C58.2859 35.0504 58.4534 34.477 58.6482 33.8183Z" fill="white"></path><path d="M53.7343 39.6259C53.7282 42.2636 52.9387 44.8403 51.4657 47.0298C49.9927 49.2194 47.9023 50.9233 45.4592 51.9261C43.0161 52.9289 40.33 53.1855 37.7408 52.6633C35.1517 52.1411 32.7758 50.8636 30.9139 48.9926C29.052 47.1216 27.7877 44.741 27.2811 42.1522C26.7744 39.5634 27.0482 36.8827 28.0677 34.4493C29.0872 32.016 30.8066 29.9393 33.0084 28.482C35.2102 27.0248 37.7953 26.2526 40.4367 26.263C42.1898 26.2639 43.9254 26.6108 45.5438 27.2836C47.1623 27.9565 48.6316 28.9422 49.8673 30.184C51.103 31.4257 52.0808 32.8991 52.7444 34.5195C53.408 36.1399 53.7445 37.8752 53.7343 39.6259ZM51 39.5798C51.0049 38.1935 50.736 36.8198 50.2087 35.5374C49.6814 34.255 48.906 33.089 47.9269 32.1062C46.9478 31.1234 45.7843 30.343 44.5028 29.8098C43.2214 29.2766 41.8472 29.001 40.4589 28.9988C34.4929 28.98 29.7727 33.6664 29.7727 39.6071C29.7677 40.9931 30.0365 42.3665 30.5636 43.6487C31.0907 44.9309 31.8658 46.0967 32.8445 47.0795C33.8232 48.0623 34.9864 48.8427 36.2675 49.3761C37.5485 49.9095 38.9223 50.1854 40.3103 50.1881C46.2729 50.2069 50.9948 45.5188 50.9983 39.5798H51Z" fill="white"></path><path d="M38.3739 41.5357C40.8365 39.2863 43.2325 37.066 45.678 34.902C46.0335 34.5863 46.6539 34.3303 47.0999 34.3901C48.2244 34.5607 48.5047 35.926 47.6126 36.764C45.6815 38.5713 43.723 40.3479 41.773 42.133C40.9561 42.8822 40.1426 43.6365 39.3087 44.3686C38.4747 45.1008 37.827 45.0513 37.1024 44.2406C35.7443 42.7104 34.4027 41.1653 33.0777 39.6055C32.4505 38.8699 32.4693 38.1088 33.0692 37.5575C33.7015 36.9875 34.4569 37.0711 35.1456 37.8391C36.2222 39.0525 37.2733 40.2762 38.3739 41.5357Z" fill="white"></path></g><defs><clipPath id="clip0_1215_435"><rect width="42" height="44" fill="white" transform="translate(19.3516 17.5508)"></rect></clipPath></defs></svg>