<svg width="80" height="80" viewBox="0 0 80 80" fill="none" xmlns="http://www.w3.org/2000/svg"><rect x="0.900391" width="79.099" height="79.1017" rx="15" fill="#272727"></rect><g clip-path="url(#clip0_1215_436)"><path d="M54.5897 22.3165C54.5897 21.5463 54.5681 20.9377 54.5897 20.3291C54.629 19.3837 55.2484 18.7534 56.1136 18.7317C57.0122 18.7081 57.7043 19.3679 57.7161 20.3508C57.741 22.4189 57.741 24.4864 57.7161 26.5532C57.7043 27.538 57.0908 28.1565 56.1155 28.1703C54.0535 28.1952 51.9896 28.1952 49.9236 28.1703C48.9405 28.1585 48.2778 27.475 48.2936 26.5788C48.3093 25.6826 48.9601 25.0602 49.9728 25.0366C50.8399 25.0169 51.709 25.0366 52.8161 25.0366C50.2127 22.7557 47.4323 21.3789 44.3197 20.7329C33.5777 18.5072 23.4768 25.46 21.5912 36.303C19.8785 46.2083 26.8176 56.1472 36.6943 57.9376C47.3694 59.8738 57.1046 53.1336 59.0414 42.4424C59.1886 41.503 59.2721 40.5548 59.2911 39.6041C59.3462 38.3376 59.8692 37.6502 60.8641 37.6443C61.8591 37.6384 62.4372 38.3553 62.4372 39.5903C62.4746 49.3814 55.2091 58.4635 45.5702 60.6754C33.214 63.5078 21.308 55.7789 18.8285 43.3208C16.4512 31.3316 24.924 19.2911 36.9755 17.5283C43.2185 16.6143 48.852 18.0345 53.8857 21.8398C54.0804 21.9679 54.2633 22.088 54.5897 22.3165Z" fill="white"></path><path d="M49.5952 41.2152C50.5174 41.4358 51.6421 41.0793 51.7109 42.3615C51.7896 43.8289 50.5311 43.5236 49.7092 43.7087C49.3573 45.9069 49.0938 46.3264 48.0969 46.3323C47.0508 46.3323 46.744 45.8537 46.4707 43.6457C45.1631 43.6457 43.8339 43.6457 42.5047 43.6457C41.8243 43.6457 41.0654 43.7599 40.6701 43.0095C40.2572 42.2217 40.6564 41.5658 41.1027 40.9276C42.9097 38.3552 44.7188 35.7829 46.5002 33.1928C47.0213 32.4364 47.6387 32.011 48.5648 32.3084C49.491 32.6058 49.6011 33.372 49.5991 34.2032C49.5913 36.5235 49.5952 38.8476 49.5952 41.2152ZM43.6412 41.2408H46.4786V37.1321L43.6412 41.2408Z" fill="white"></path><path d="M33.3697 43.7364C35.0784 43.7364 36.4823 43.7266 37.8922 43.7364C38.9441 43.7364 39.4652 44.1579 39.4102 44.9714C39.3551 45.8932 38.7475 46.1532 37.9276 46.1532C35.6034 46.1532 33.2805 46.1532 30.959 46.1532C30.3199 46.1532 29.557 46.1413 29.4567 45.3889C29.38 44.8197 29.5295 44.0417 29.8893 43.6163C31.2657 42.0051 32.8388 40.5416 34.2152 38.9344C34.8018 38.2465 35.2426 37.4464 35.511 36.5826C35.9042 35.3004 35.0666 34.3234 33.7413 34.5263C32.8329 34.6642 31.952 35.0896 31.1045 35.4855C30.4418 35.7967 29.8441 36.1533 29.3348 35.3319C28.9081 34.6504 29.1087 33.8803 29.8657 33.3957C31.5489 32.3144 33.3736 31.8023 35.3714 32.2514C38.3484 32.9211 39.6009 35.5998 38.0573 38.2588C37.3455 39.4859 36.2877 40.52 35.3674 41.6072C34.7913 42.2946 34.1621 42.9013 33.3697 43.7364Z" fill="white"></path></g><defs><clipPath id="clip0_1215_436"><rect width="44" height="44" fill="white" transform="translate(18.4492 17.2563)"></rect></clipPath></defs></svg>